<svg width="57" height="57" viewBox="0 0 57 57" fill="none" xmlns="http://www.w3.org/2000/svg">
<path d="M22.2279 8.65908C22.2423 8.80038 22.2691 8.93787 22.2691 9.07536C22.2719 10.412 22.2585 11.7487 22.2786 13.0844C22.2844 13.4549 22.136 13.6143 21.8049 13.7327C19.1297 14.6865 16.824 16.2065 14.8648 18.2583C12.2471 20.9994 10.5951 24.2265 10.0314 27.9711C9.26185 33.0867 10.4104 37.7718 13.5852 41.8544C16.7034 45.8653 20.8411 48.2351 25.9396 48.8136C29.9844 49.2729 33.8062 48.5148 37.2738 46.3924C42.3331 43.2961 45.4007 38.7943 46.0352 32.8767C46.7588 26.1246 44.3239 20.5984 38.9985 16.3602C37.2958 15.0054 35.3615 14.0736 33.2826 13.4482C32.8433 13.3164 32.7265 13.1006 32.7351 12.6691C32.76 11.2713 32.7447 9.87354 32.7447 8.3631C35.5213 8.91686 38.0366 9.93274 40.3423 11.4365C45.975 15.1076 49.5029 20.248 50.6505 26.8569C52.9093 39.8694 43.9602 51.6923 31.3205 53.4958C17.7831 55.4263 6.30915 45.6343 5.11084 33.0524C3.85893 19.91 13.4425 10.5476 22.2279 8.65908Z" stroke="#1FA898" stroke-width="2" stroke-miterlimit="10"/>
<path d="M25.0935 15.9726C25.0935 12.1086 25.0926 8.24376 25.0945 4.37982C25.0945 3.27707 25.3711 2.99159 26.4756 3.00019C27.383 3.00687 28.2913 3.0231 29.1967 3.07943C29.6839 3.10998 29.9442 3.46038 29.9432 3.95018C29.9385 6.06403 29.9298 8.17788 29.9279 10.2917C29.9251 12.8333 29.927 15.3739 29.926 17.9155C29.9251 20.1067 29.9222 22.2979 29.9212 24.4891C29.9203 25.6319 29.9241 26.7748 29.9203 27.9167C29.9184 28.5965 29.6781 28.9001 28.9919 28.9297C27.9735 28.9736 26.9513 28.9746 25.9329 28.9459C25.3548 28.9297 25.1041 28.6013 25.0983 27.9463C25.0868 26.7376 25.0945 25.5288 25.0935 24.3201C25.0926 21.5389 25.0926 18.7557 25.0935 15.9726Z" stroke="#1FA898" stroke-width="2" stroke-miterlimit="10"/>
</svg>
