<svg width="57" height="57" viewBox="0 0 57 57" fill="none" xmlns="http://www.w3.org/2000/svg">
<path d="M28 52C40.7026 52 51 41.7026 51 29C51 16.2975 40.7026 6 28 6C15.2975 6 5 16.2975 5 29C5 41.7026 15.2975 52 28 52Z" stroke="#1FA898" stroke-width="2" stroke-miterlimit="10"/>
<path d="M22.9104 22.9976C22.877 22.9868 22.8609 22.9771 22.8448 22.976C21.6466 22.9297 20.6832 23.3754 20.0061 24.3733C19.1428 25.6457 18.302 26.9332 17.4441 28.2088C17.3483 28.3509 17.2159 28.4801 17.0738 28.5759C16.036 29.2767 14.9929 29.9678 13.9488 30.6578C13.8497 30.7234 13.8088 30.7848 13.8368 30.9086C14.2082 32.5728 14.5742 34.2392 14.9434 35.9045C15.3137 37.5752 15.6862 39.2459 16.0533 40.9177C16.0802 41.0415 16.1254 41.0835 16.2556 41.0824C17.0275 41.0759 17.8004 41.0802 18.5722 41.0802C18.6185 41.0802 18.6659 41.0716 18.7401 41.0652C18.6271 39.8606 18.9468 38.8379 20.0707 38.2545C21.201 37.6678 22.2215 37.9391 23.101 38.8185C23.9944 37.8067 25.664 37.5451 26.8503 38.8185C27.353 38.2792 27.9634 37.9584 28.7116 37.9574C29.4651 37.9563 30.0798 38.2803 30.6029 38.8422C30.6449 38.7884 30.6718 38.7464 30.7052 38.712C31.8473 37.5408 33.7559 37.7701 34.602 39.1759C34.9024 39.6754 34.9799 40.2201 34.9594 40.7885C34.9562 40.8822 34.9594 40.9769 34.9594 41.0791C35.9498 41.0791 36.9111 41.1007 37.8702 41.0716C38.6334 41.049 39.2686 40.4128 39.3278 39.6862C39.3934 38.8788 38.9219 38.1867 38.1501 38.009C37.8885 37.9488 37.6076 37.9617 37.3352 37.9563C36.9132 37.9477 36.6333 37.7087 36.6301 37.3352C36.6269 36.9595 36.9035 36.7119 37.3255 36.7108C37.727 36.7087 38.1286 36.7226 38.529 36.6979C39.261 36.6527 39.8262 36.0897 39.936 35.3243C40.0329 34.6547 39.6281 33.9378 38.9801 33.7074C38.7303 33.6192 38.4472 33.6159 38.177 33.5912C37.9682 33.5729 37.7615 33.5707 37.6119 33.3942C37.4472 33.1993 37.3804 32.9851 37.4838 32.7365C37.5914 32.477 37.7884 32.3468 38.0629 32.3414C38.3729 32.3349 38.683 32.3457 38.993 32.3403C39.7013 32.3274 40.2449 31.9388 40.4817 31.2843C40.6981 30.6868 40.5151 29.999 40.0221 29.5791C39.7282 29.3283 39.3827 29.2185 38.9973 29.2131C38.8046 29.211 38.6022 29.211 38.4235 29.1507C38.1641 29.0635 38.0242 28.7503 38.0737 28.4779C38.1275 28.1819 38.3449 27.9838 38.6571 27.972C39.0156 27.959 39.3751 27.972 39.7325 27.9612C40.5862 27.9332 41.2816 27.142 41.2073 26.2937C41.1309 25.4304 40.4828 24.8448 39.5861 24.8437C36.0779 24.8405 32.5696 24.8426 29.0614 24.8394C28.9344 24.8394 28.8709 24.8739 28.8214 24.9987C28.1948 26.579 27.5619 28.1582 26.9278 29.7363C26.7276 30.2358 26.4219 30.661 26.0074 31.0076C24.931 31.9076 23.4056 31.9808 22.2452 31.1852C21.1116 30.407 20.6025 28.9171 21.0772 27.6221C21.483 26.5166 21.9427 25.4304 22.3776 24.3356C22.5552 23.89 22.7317 23.4454 22.9104 22.9976Z" stroke="#1FA898" stroke-width="2" stroke-miterlimit="10"/>
<path d="M42.1718 19.5055C42.1234 19.4786 42.0975 19.4613 42.0706 19.4484C41.1912 19.0351 40.3106 18.6228 39.4311 18.2083C37.2157 17.1663 35.0003 16.1264 32.7882 15.079C32.6568 15.0166 32.5998 15.0478 32.5201 15.149C32.1186 15.6603 31.6955 16.1555 31.3069 16.6754C30.7116 17.4699 29.9656 17.9855 28.9613 18.1287C27.1313 18.3913 25.7738 19.3569 25.0494 21.0578C24.0762 23.342 23.1828 25.6597 22.2753 27.972C21.989 28.7007 22.158 29.3822 22.7091 29.9355C23.6392 30.8709 25.2873 30.604 25.8266 29.1948C26.4897 27.4596 27.1948 25.7404 27.8837 24.0148C27.9946 23.7382 28.2045 23.5972 28.5059 23.5972C28.9742 23.5982 29.4425 23.5961 29.9107 23.5961C33.0842 23.5961 36.2577 23.595 39.43 23.5982C39.5549 23.5982 39.626 23.5595 39.6927 23.4529C40.2675 22.5304 40.8488 21.6111 41.428 20.6907C41.6723 20.3031 41.9167 19.9124 42.1718 19.5055Z" stroke="#1FA898" stroke-width="2" stroke-miterlimit="10"/>
<path d="M33.7258 41.1007C33.7204 41.1007 33.715 41.1007 33.7096 41.0996C33.7096 40.8682 33.7172 40.6378 33.7086 40.4063C33.6838 39.7346 33.1628 39.2233 32.4878 39.1996C31.8366 39.177 31.2628 39.6711 31.2219 40.3332C31.1918 40.8229 31.1939 41.3181 31.2219 41.809C31.2563 42.4129 31.7451 42.8952 32.3167 42.9404C32.9809 42.9931 33.5342 42.6304 33.6698 42.0049C33.7322 41.7143 33.7096 41.4032 33.7258 41.1007Z" stroke="#1FA898" stroke-width="2" stroke-miterlimit="10"/>
<path d="M23.6833 41.0781C23.6941 41.0791 23.7059 41.0802 23.7167 41.0813C23.7167 41.2998 23.7113 41.5184 23.7178 41.7369C23.7382 42.3709 24.2442 42.9113 24.8416 42.9425C25.5704 42.9802 26.1388 42.5507 26.1937 41.8607C26.2346 41.3364 26.227 40.8046 26.1926 40.2793C26.1538 39.6905 25.6845 39.2717 25.0677 39.2072C24.5165 39.1501 23.9428 39.4967 23.7996 40.036C23.7113 40.3708 23.7189 40.7304 23.6833 41.0781Z" stroke="#1FA898" stroke-width="2" stroke-miterlimit="10"/>
<path d="M19.9727 41.0856C19.9738 41.0856 19.9738 41.0856 19.9749 41.0856C19.9749 41.3407 19.9576 41.5969 19.9781 41.8499C20.033 42.5087 20.6197 42.9759 21.3345 42.9458C21.9308 42.921 22.4637 42.3655 22.4723 41.7541C22.4777 41.3106 22.4766 40.8671 22.4723 40.4236C22.4658 39.7508 21.9082 39.2072 21.2268 39.205C20.5368 39.2018 19.9781 39.7486 19.9738 40.4311C19.9716 40.6475 19.9727 40.8671 19.9727 41.0856Z" stroke="#1FA898" stroke-width="2" stroke-miterlimit="10"/>
<path d="M29.9786 41.0802C29.9721 41.0802 29.9656 41.0791 29.9592 41.0791C29.9592 40.8542 29.9613 40.6303 29.9592 40.4053C29.9527 39.7798 29.4651 39.2728 28.8117 39.2104C28.1948 39.1512 27.5834 39.5699 27.5102 40.1771C27.4478 40.6981 27.4661 41.2299 27.4715 41.7573C27.4779 42.3558 27.9494 42.8672 28.5339 42.9404C29.1723 43.02 29.7751 42.6443 29.9097 42.0383C29.9775 41.7283 29.9581 41.3999 29.9786 41.0802Z" stroke="#1FA898" stroke-width="2" stroke-miterlimit="10"/>
</svg>
