<svg width="57" height="57" viewBox="0 0 57 57" fill="none" xmlns="http://www.w3.org/2000/svg">
<path d="M27.295 14.7766C27.295 16.0527 27.295 17.2782 27.295 18.534C28.4285 18.534 29.5405 18.534 30.6913 18.534C30.6913 17.3074 30.6913 16.0718 30.6913 14.7766C30.8517 14.7766 30.9733 14.7766 31.095 14.7766C33.3792 14.7766 35.6646 14.7755 37.9489 14.7766C40.6885 14.7789 42.8253 16.9917 42.8307 19.8583C42.8393 24.42 42.8339 28.9805 42.8339 33.5421C42.8339 34.4913 42.8318 35.4394 42.8339 36.3885C42.8393 39.3484 40.7316 41.5657 37.9047 41.5668C31.9131 41.5691 25.9214 41.5691 19.9308 41.5668C17.2934 41.5657 15.1373 39.345 15.133 36.5952C15.1233 30.9754 15.1233 25.3557 15.133 19.737C15.1373 17.0131 17.2967 14.7834 19.9093 14.7777C22.2635 14.7732 24.6189 14.7766 26.9731 14.7766C27.0646 14.7766 27.1561 14.7766 27.295 14.7766ZM33.531 29.3557C31.786 27.1855 30.0949 25.0838 28.3844 22.9563C26.6739 25.0704 24.9773 27.1675 23.2098 29.3534C24.2905 29.3534 25.2518 29.3534 26.2519 29.3534C26.2519 31.8246 26.2519 34.2509 26.2519 36.712C26.4058 36.712 26.5199 36.712 26.634 36.712C27.788 36.712 28.942 36.6997 30.096 36.7199C30.4189 36.7255 30.5072 36.6267 30.505 36.2908C30.491 34.1262 30.4975 31.9606 30.4975 29.796C30.4975 29.6556 30.4975 29.5141 30.4975 29.3568C31.5126 29.3557 32.4771 29.3557 33.531 29.3557Z" stroke="#1FA898" stroke-width="2" stroke-miterlimit="10"/>
<path d="M29 52C41.7025 52 52 41.2548 52 28C52 14.7452 41.7025 4 29 4C16.2975 4 6 14.7452 6 28C6 41.2548 16.2975 52 29 52Z" stroke="#1FA898" stroke-width="2" stroke-miterlimit="10"/>
</svg>
