<svg width="57" height="57" viewBox="0 0 57 57" fill="none" xmlns="http://www.w3.org/2000/svg">
<path d="M22.7441 9.12321C22.4901 9.14611 22.2353 9.1609 21.9806 9.17567C21.6156 9.19686 21.2507 9.21803 20.8885 9.26309C14.4813 10.062 9.17881 12.9077 5.15427 17.9479C0.894094 23.2832 -0.699501 29.3998 0.278138 36.1404L22.7441 9.12321ZM22.7441 9.12321C23.2296 9.0784 23.3765 9.29369 23.3721 9.76034M22.7441 9.12321L22.3699 9.68226C22.3699 9.68225 22.3706 9.68655 22.3725 9.69437C22.3752 9.70516 22.3807 9.72497 22.3913 9.75077L22.801 9.75477L22.8024 9.75478L23.3721 9.76034M35.2892 32.9904C35.8248 32.6773 36.2491 32.1781 36.3463 31.5198C36.4419 30.8729 36.1907 30.2794 35.8098 29.825L35.8095 29.8247C35.6992 29.6933 35.5845 29.5834 35.5004 29.5043C35.4778 29.4831 35.4577 29.4643 35.4395 29.4472C35.4038 29.4138 35.3752 29.3871 35.3494 29.362C35.6057 29.2465 36.1019 29.1723 36.7139 29.2501C37.3713 29.3336 37.8602 29.5541 38.061 29.7425C38.0577 29.7454 38.0544 29.7482 38.051 29.7511L38.0504 29.7516C37.8427 29.9295 37.5392 30.209 37.3452 30.5952C37.1231 31.0375 37.0764 31.5525 37.2787 32.0874L35.2892 32.9904ZM35.2892 32.9904C34.8402 33.2545 34.3015 33.3828 33.8226 33.3908C32.67 33.411 31.5133 33.408 30.3685 33.405C29.9607 33.404 29.5544 33.4029 29.1502 33.4029H28.1502V33.3954C28.0845 33.3953 28.0188 33.3952 27.9531 33.3951C26.7636 33.3933 25.5818 33.3915 24.3983 33.4061M35.2892 32.9904L24.3983 33.4061M24.3983 33.4061C24.3755 33.4064 24.349 33.4083 24.3217 33.412C24.2954 33.4155 24.2729 33.4202 24.2555 33.4249C23.0417 34.4997 21.8411 35.5818 20.6366 36.6674C19.9233 37.3104 19.2086 37.9546 18.489 38.5991C18.4201 38.661 18.3733 38.7075 18.3407 38.7444L24.3983 33.4061ZM15.7143 39.0033C15.6711 38.6778 15.673 38.3567 15.717 38.06L15.7171 38.0594C15.7811 37.6307 16.0348 37.2988 16.2288 37.1138L16.2298 37.1129C16.5958 36.765 16.972 36.4275 17.3359 36.1012C17.4056 36.0386 17.4749 35.9765 17.5436 35.9148L17.5439 35.9145C17.9457 35.5537 18.347 35.1942 18.7478 34.8353C19.9453 33.763 21.1373 32.6956 22.3168 31.6116C22.3169 31.6115 22.317 31.6114 22.3171 31.6113C22.3227 31.6032 22.3305 31.5902 22.3378 31.5742C22.343 31.5632 22.3464 31.5539 22.3486 31.5473C22.3774 29.8199 22.371 28.0899 22.3601 26.3505V26.3503C22.3599 26.3232 22.3542 26.3108 22.3524 26.3074C22.3514 26.3054 22.3504 26.3039 22.3495 26.3027C22.3483 26.3013 22.3472 26.3003 22.3463 26.2996C22.3455 26.299 22.3444 26.2983 22.3428 26.2976C22.3413 26.297 22.3393 26.2963 22.3366 26.2959C22.3326 26.2951 22.3191 26.2933 22.2938 26.3006C22.2218 26.3227 22.1057 26.3833 21.9611 26.4963L21.959 26.4979C21.3637 26.9603 20.6535 27.2447 19.8906 27.1524C19.1247 27.0598 18.5014 26.6114 18.035 26.0062L15.7143 39.0033ZM15.7143 39.0033C15.5364 38.9596 15.3471 38.9396 15.1469 38.953C14.5619 38.9922 14.1049 39.3031 13.7559 39.6261L13.7551 39.6269C11.1931 42.004 8.6279 44.3781 6.05959 46.749C3.49583 43.578 1.84908 40.0061 1.26779 35.997L1.26778 35.9969C0.328827 29.523 1.85237 23.6857 5.93571 18.5719C9.78931 13.7458 14.8506 11.0237 21.012 10.2554L15.7143 39.0033ZM7.8508 48.6698C8.99809 47.6152 10.1405 46.5548 11.2809 45.4964C11.7701 45.0424 12.2588 44.5887 12.7475 44.136C13.1945 43.7219 13.6424 43.3083 14.091 42.894L14.0911 42.894L14.0949 42.8904C14.479 42.5357 14.8636 42.1806 15.2478 41.825C15.2493 41.8273 15.2508 41.8296 15.2523 41.8319C15.2917 41.8939 15.3152 41.9403 15.3286 41.9726C14.7965 42.9396 14.6818 44.0791 15.3543 44.9822C16.0151 45.8696 17.1792 46.1729 18.4145 46.0605C19.361 45.9747 20.2334 45.4779 20.8649 44.8607C21.49 44.2499 22.0082 43.3926 22.055 42.4572C22.055 42.457 22.055 42.4567 22.055 42.4564L21.4532 42.4265C21.4678 42.1981 21.4479 41.9641 21.3834 41.7299C21.2189 41.1325 20.806 40.685 20.2785 40.3965C20.2743 40.3942 20.2702 40.3919 20.266 40.3897C20.266 40.3897 20.266 40.3897 20.2659 40.3897C19.7391 40.1033 19.1599 39.932 18.6251 39.8353L7.8508 48.6698ZM7.8508 48.6698C7.90951 48.7246 7.96695 48.7787 8.0229 48.8313L8.05694 48.8633C8.25062 49.0454 8.42806 49.2113 8.6091 49.3667L8.60917 49.3667C14.109 54.0873 20.4144 55.8453 27.5491 54.6248C32.6675 53.7492 36.9222 51.2469 40.3855 47.3639C42.5474 44.9398 44.0861 42.1495 45.0274 39.0245L45.0275 39.0242C45.569 37.2286 45.8515 35.3828 45.9776 33.4842C45.1968 33.4764 44.42 33.4662 43.645 33.456C42.2256 33.4375 40.8121 33.4189 39.3905 33.4149C39.3902 33.4149 39.3899 33.4149 39.3896 33.4149L39.3924 32.4149L7.8508 48.6698ZM17.9047 41.7203C17.8792 41.462 17.823 41.2079 17.7373 40.9637C17.9241 41.054 18.1291 41.1216 18.3525 41.1642C18.3525 41.1642 18.3525 41.1642 18.3525 41.1642C18.3643 41.1665 18.3761 41.1686 18.388 41.1707L18.4503 40.8199L18.388 41.1707C18.8211 41.2476 19.2546 41.3884 19.6303 41.5797C19.6304 41.5797 19.6305 41.5798 19.6307 41.5798C19.6363 41.5827 19.6419 41.5856 19.6475 41.5885L17.9047 41.7203ZM17.9047 41.7203C17.9597 42.2762 17.8727 42.8518 17.6332 43.3909L17.6331 43.3912C17.6275 43.4037 17.6225 43.4156 17.6178 43.4269C18.2831 43.5431 19.1052 43.1258 19.3863 42.532C19.4312 42.4367 19.4488 42.3668 19.4548 42.3225C19.4606 42.2799 19.4556 42.2621 19.4552 42.2608C19.455 42.2602 19.4549 42.2596 19.4546 42.2591C19.4544 42.2585 19.4541 42.2579 19.4537 42.2571C19.4529 42.2557 19.4503 42.251 19.4437 42.2432C19.4307 42.2279 19.3958 42.1933 19.3185 42.1511L19.3175 42.1505C19.019 41.9869 18.6432 41.8686 18.2418 41.7985L18.2416 41.7985C18.1251 41.7781 18.0128 41.7519 17.9047 41.7203ZM46.0087 32.9741C46.0083 32.9703 46.0081 32.9673 46.008 32.9652M46.0087 32.9741L46.0087 32.9748M46.0087 32.9741L46.3947 32.9941L46.3949 32.9941L47.005 33.0258L46.3949 32.9945L46.3947 32.9945L46.0087 32.9748M46.0087 32.9741L46.0087 32.9748M46.008 32.9652C46.008 32.9626 46.008 32.9616 46.0079 32.9622C46.0079 32.9625 46.0079 32.9636 46.008 32.9652ZM46.008 32.9652C46.008 32.9673 46.0079 32.9705 46.0077 32.9747L46.0087 32.9748M23.3721 9.76034L22.8024 9.75498L22.8011 9.75497L22.3915 9.75113L23.3636 17.3607V17.3534L23.3633 15.4956C23.3633 15.0037 23.3627 14.5119 23.362 14.0201V14.02V14.0199V14.0198C23.3601 12.5994 23.3583 11.1792 23.3721 9.76034ZM22.3633 21.0679C22.3641 19.8299 22.3638 18.5922 22.3636 17.354C22.3635 16.7347 22.3633 16.1152 22.3633 15.4956C22.3633 15.0067 22.3627 14.5168 22.362 14.0261C22.3603 12.7382 22.3586 11.4452 22.3686 10.1542C22.2545 10.1615 22.1421 10.168 22.0332 10.1743C21.9794 10.1774 21.9264 10.1805 21.8745 10.1836C21.5675 10.2019 21.2855 10.2214 21.0123 10.2554L22.3633 21.0679ZM22.3633 21.0679C22.3632 21.1669 22.3436 21.2202 22.3338 21.2406C22.311 21.2396 22.2535 21.2314 22.1638 21.1831L22.1618 21.182C22.0901 21.1436 22.0468 21.1053 21.9498 21.0195C21.8896 20.9662 21.8087 20.8946 21.6874 20.7934M22.3633 21.0679L21.6874 20.7934M21.6874 20.7934C21.6876 20.7935 21.6877 20.7936 21.6878 20.7937L21.0464 21.5608L21.6874 20.7934ZM21.6874 20.7934C20.9319 20.1618 19.9812 19.8714 19.0729 20.1522C18.1532 20.4365 17.5397 21.2248 17.3081 22.2024L17.308 22.2027C17.0102 23.4617 17.1194 24.8184 18.0349 26.0061L21.6874 20.7934ZM55.9811 23.2815V23.2591C55.9811 23.0073 55.9867 22.7846 55.9919 22.5777C56.0016 22.1895 56.01 21.8569 55.9774 21.4923L55.9774 21.4922C55.649 17.8056 54.5317 14.3935 52.5396 11.2807L52.5395 11.2807C49.7672 6.94794 45.9754 3.92609 41.1621 2.16134C40.1345 5.56004 39.0911 8.9531 38.0486 12.3433L37.8847 12.8763C37.8846 12.8765 37.8846 12.8766 37.8845 12.8768C37.8845 12.8769 37.8845 12.877 37.8844 12.8771C37.7034 13.467 37.3167 14.0444 36.6557 14.2923C35.9801 14.5458 35.3001 14.3507 34.7685 13.9819L55.9811 23.2815ZM55.9811 23.2815L55.9822 23.3039M55.9811 23.2815L55.9822 23.3039M55.9822 23.3039C56.0617 25.0802 55.8265 26.8375 55.3892 28.6007M55.9822 23.3039L55.3892 28.6007M55.3892 28.6007C53.6528 28.0682 51.919 27.5303 50.1835 26.9918C49.4887 26.7762 48.7937 26.5606 48.0981 26.3452C48.135 26.3055 48.1739 26.2656 48.2171 26.2217C48.2409 26.2089 48.2725 26.1937 48.3432 26.1597L48.3437 26.1594C48.4095 26.1278 48.5222 26.0735 48.6352 26.0026C48.7518 25.9295 48.9029 25.8183 49.038 25.6518C49.038 25.6517 49.0381 25.6517 49.0381 25.6516L48.2613 25.0219M55.3892 28.6007L44.6961 21.1394M48.2613 25.0219C48.6044 24.5989 48.5101 24.1203 48.1879 23.7159M48.2613 25.0219C48.1713 25.1329 48.0302 25.2007 47.888 25.2689C47.7602 25.3303 47.6314 25.3922 47.538 25.4863L48.2613 25.0219ZM48.1879 23.7159L48.9701 23.0929C48.97 23.0928 48.97 23.0928 48.9699 23.0927L48.1879 23.7159ZM48.1879 23.7159C47.3122 22.6165 46.1658 22.0603 44.7508 22.1379M44.7508 22.1379L44.6961 21.1394M44.7508 22.1379L44.6961 21.1394C44.6961 21.1394 44.6961 21.1394 44.6961 21.1394M44.7508 22.1379C43.7732 22.1914 43.4192 22.8886 43.9036 23.7356M44.6961 21.1394L43.0941 24.3275L43.0952 24.3292L43.1037 24.3422M43.9036 23.7356L43.0286 24.2197C43.0301 24.2225 43.0316 24.2251 43.0331 24.2278C43.0339 24.2292 43.0347 24.2307 43.0356 24.2321L43.9036 23.7356ZM43.9036 23.7356C43.9133 23.7531 43.9243 23.7699 43.9353 23.7868C43.9443 23.8005 43.9533 23.8143 43.9617 23.8285C44.2313 24.2591 44.4604 24.7017 44.1096 25.1913M44.1096 25.1913L43.299 24.6096C43.3002 24.6061 43.3014 24.6034 43.3021 24.6016C43.3068 24.5957 43.3095 24.593 43.3094 24.5929C43.3094 24.5929 43.299 24.6032 43.2722 24.6199C43.2696 24.6215 43.267 24.6231 43.2643 24.6247M44.1096 25.1913L43.2987 24.6103L44.1096 25.1913ZM43.2643 24.6247C43.2603 24.6159 43.2557 24.6061 43.2504 24.5953C43.2196 24.5327 43.1767 24.459 43.1141 24.3592L43.1067 24.3473L43.1037 24.3422M43.2643 24.6247C43.2226 24.6496 43.1634 24.6767 43.0908 24.6984C43.014 24.7213 42.9376 24.7335 42.8718 24.7357C42.8039 24.7381 42.7678 24.7294 42.7608 24.7272L42.7606 24.7271C40.1694 23.9208 37.5783 23.1103 34.9891 22.2967C35.3639 21.0824 35.7349 19.8662 36.1053 18.6519C36.2192 18.2783 36.3331 17.9049 36.447 17.5318L36.4472 17.5314C36.6664 16.8126 36.5569 16.0414 36.0506 15.4769C35.5476 14.9159 34.7973 14.7194 34.0601 14.8409C33.7901 14.8847 33.4732 14.9698 33.1735 15.1325L33.6505 16.0114M43.2643 24.6247L34.4692 23.1815C33.7399 22.9525 33.7424 22.9445 33.9639 22.2273L33.9716 22.2023M43.1037 24.3422L43.1054 24.3449C43.1063 24.3463 43.1038 24.3424 43.0996 24.3353L43.1037 24.3422ZM33.6505 16.0114C32.8372 16.4507 32.0755 16.0409 31.6809 15.2224M33.6505 16.0114L33.1752 15.1316C33.0881 15.1786 33.0305 15.1884 33.0001 15.1901C32.9707 15.1917 32.9431 15.1871 32.9106 15.1729C32.8397 15.1418 32.7032 15.0401 32.5818 14.7883L31.6809 15.2224M33.6505 16.0114C33.8236 15.9174 34.0253 15.8595 34.2215 15.8278C35.152 15.6737 35.7603 16.3556 35.4906 17.2397L35.1488 18.3601L35.1487 18.3602C34.7579 19.6416 34.367 20.9229 33.9716 22.2023M31.6809 15.2224C31.1844 14.1918 31.4475 12.6673 32.2607 11.8619L32.5817 14.7881M31.6809 15.2224L32.5817 14.7881M33.9716 22.2023L34.7056 22.4289L34.7057 22.429L34.7565 22.4446L34.927 22.4977L34.9202 22.5196C34.8938 22.6052 34.8737 22.6701 34.8573 22.7266C34.8394 22.7886 34.8321 22.819 34.8295 22.8321C34.8265 22.8471 34.8352 22.8123 34.8335 22.7491C34.8315 22.6788 34.8164 22.5678 34.7567 22.445L34.7056 22.4292L34.7055 22.4292L33.9716 22.2023ZM32.5817 14.7881C32.4421 14.4982 32.3873 14.0785 32.4651 13.6277C32.5429 13.1768 32.7353 12.7993 32.9644 12.5724L32.9647 12.5721M32.5817 14.7881L32.9647 12.5721M32.9647 12.5721C33.1637 12.3748 33.2807 12.3872 33.2993 12.3897M32.9647 12.5721L33.2993 12.3897M33.2993 12.3897C33.327 12.3934 33.4603 12.424 33.6215 12.6789L33.2993 12.3897ZM7.42431 49.0633C7.42402 49.0633 7.42661 49.0602 7.43295 49.0539C7.42778 49.0601 7.4246 49.0633 7.42431 49.0633ZM18.3553 45.4093C19.5497 45.2377 20.6783 44.4772 21.194 43.3876L21.1944 43.3867C21.3343 43.0905 21.4315 42.7648 21.4532 42.4268L18.3553 45.4093ZM15.3587 41.9188L15.3584 41.9193L15.3587 41.9188ZM22.864 10.1174C22.8639 10.1174 22.8634 10.1174 22.8623 10.1174C22.8635 10.1174 22.864 10.1174 22.864 10.1174ZM18.827 25.3956C18.1387 24.5028 18.0345 23.4755 18.2811 22.4329L18.827 25.3956Z" stroke="#1FA898" stroke-width="2"/>
</svg>
